<mxfile host="app.diagrams.net" modified="2022-05-15T21:04:26.698Z" agent="5.0 (Windows NT 10.0; Win64; x64) AppleWebKit/537.36 (KHTML, like Gecko) Chrome/101.0.4951.67 Safari/537.36" etag="8zB0ef-eW3LyvsUQT3Rm" version="18.0.5" type="github">
  <diagram id="FzNZO5h_2QtX3EIouaig" name="Page-1">
    <mxGraphModel dx="1902" dy="1001" grid="1" gridSize="10" guides="1" tooltips="1" connect="1" arrows="1" fold="1" page="1" pageScale="1" pageWidth="1169" pageHeight="827" math="0" shadow="0">
      <root>
        <mxCell id="0" />
        <mxCell id="1" parent="0" />
        <mxCell id="bOvIYaEvH0mdddr9fpXH-4" value="" style="swimlane;startSize=70;fontSize=15;verticalAlign=bottom;" parent="1" vertex="1">
          <mxGeometry width="1920" height="940" as="geometry" />
        </mxCell>
        <mxCell id="bOvIYaEvH0mdddr9fpXH-6" value="" style="verticalLabelPosition=bottom;verticalAlign=top;html=1;shape=mxgraph.basic.rect;fillColor2=none;strokeWidth=1;size=20;indent=5;" parent="bOvIYaEvH0mdddr9fpXH-4" vertex="1">
          <mxGeometry x="800" y="350" width="380" height="30" as="geometry" />
        </mxCell>
        <mxCell id="bOvIYaEvH0mdddr9fpXH-7" value="" style="verticalLabelPosition=bottom;verticalAlign=top;html=1;shape=mxgraph.basic.rect;fillColor2=none;strokeWidth=1;size=20;indent=5;" parent="bOvIYaEvH0mdddr9fpXH-4" vertex="1">
          <mxGeometry x="800" y="470" width="380" height="30" as="geometry" />
        </mxCell>
        <mxCell id="bOvIYaEvH0mdddr9fpXH-8" value="&lt;font style=&quot;font-size: 30px;&quot;&gt;&lt;b&gt;CUENTA&lt;/b&gt;&lt;/font&gt;" style="text;html=1;strokeColor=none;fillColor=none;align=center;verticalAlign=middle;whiteSpace=wrap;rounded=0;" parent="bOvIYaEvH0mdddr9fpXH-4" vertex="1">
          <mxGeometry x="924.5" y="190" width="150" height="30" as="geometry" />
        </mxCell>
        <mxCell id="bOvIYaEvH0mdddr9fpXH-9" value="&lt;span style=&quot;color: rgb(32, 33, 36); font-family: Roboto, arial, sans-serif; text-align: left; background-color: rgb(255, 255, 255);&quot;&gt;&lt;b style=&quot;&quot;&gt;&lt;font style=&quot;font-size: 16px;&quot;&gt;¿Ya esta registrado?&lt;/font&gt;&lt;/b&gt;&lt;/span&gt;" style="text;html=1;strokeColor=none;fillColor=none;align=center;verticalAlign=middle;whiteSpace=wrap;rounded=0;fontSize=19;" parent="bOvIYaEvH0mdddr9fpXH-4" vertex="1">
          <mxGeometry x="785.5" y="260" width="190" height="40" as="geometry" />
        </mxCell>
        <mxCell id="bOvIYaEvH0mdddr9fpXH-10" value="&lt;font style=&quot;font-size: 18px;&quot;&gt;Correo electronico&lt;/font&gt;" style="text;html=1;strokeColor=none;fillColor=none;align=center;verticalAlign=middle;whiteSpace=wrap;rounded=0;fontSize=19;" parent="bOvIYaEvH0mdddr9fpXH-4" vertex="1">
          <mxGeometry x="800" y="310" width="150" height="30" as="geometry" />
        </mxCell>
        <mxCell id="bOvIYaEvH0mdddr9fpXH-12" value="&lt;font style=&quot;&quot;&gt;&lt;font style=&quot;font-size: 18px;&quot;&gt;Contraseña&lt;/font&gt;&lt;br&gt;&lt;/font&gt;" style="text;html=1;strokeColor=none;fillColor=none;align=center;verticalAlign=middle;whiteSpace=wrap;rounded=0;fontSize=19;" parent="bOvIYaEvH0mdddr9fpXH-4" vertex="1">
          <mxGeometry x="799.5" y="430" width="100.5" height="30" as="geometry" />
        </mxCell>
        <mxCell id="bOvIYaEvH0mdddr9fpXH-20" value="Icon" style="icon;html=1;image=img/clipart/Gear_128x128.png;fontSize=14;" parent="bOvIYaEvH0mdddr9fpXH-4" vertex="1">
          <mxGeometry x="1630" y="30" width="10" height="10" as="geometry" />
        </mxCell>
        <mxCell id="bOvIYaEvH0mdddr9fpXH-21" value="Icon" style="icon;html=1;image=img/clipart/Gear_128x128.png;fontSize=14;" parent="bOvIYaEvH0mdddr9fpXH-4" vertex="1">
          <mxGeometry x="1760" y="30" width="10" height="10" as="geometry" />
        </mxCell>
        <mxCell id="bOvIYaEvH0mdddr9fpXH-22" value="Icon" style="icon;html=1;image=img/clipart/Gear_128x128.png;fontSize=14;" parent="bOvIYaEvH0mdddr9fpXH-4" vertex="1">
          <mxGeometry x="1880" y="30" width="10" height="10" as="geometry" />
        </mxCell>
        <mxCell id="bOvIYaEvH0mdddr9fpXH-24" value="BLACK DIAMOND" style="text;strokeColor=none;fillColor=none;html=1;fontSize=24;fontStyle=1;verticalAlign=middle;align=center;" parent="bOvIYaEvH0mdddr9fpXH-4" vertex="1">
          <mxGeometry x="90" y="20" width="100" height="40" as="geometry" />
        </mxCell>
        <mxCell id="bOvIYaEvH0mdddr9fpXH-25" value="Busqueda" style="text;html=1;strokeColor=none;fillColor=none;align=center;verticalAlign=middle;whiteSpace=wrap;rounded=0;fontSize=15;" parent="bOvIYaEvH0mdddr9fpXH-4" vertex="1">
          <mxGeometry x="1530" y="20" width="60" height="30" as="geometry" />
        </mxCell>
        <mxCell id="bOvIYaEvH0mdddr9fpXH-26" value="Mi cuenta" style="text;html=1;strokeColor=none;fillColor=none;align=center;verticalAlign=middle;whiteSpace=wrap;rounded=0;fontSize=15;" parent="bOvIYaEvH0mdddr9fpXH-4" vertex="1">
          <mxGeometry x="1670" y="20" width="70" height="30" as="geometry" />
        </mxCell>
        <mxCell id="bOvIYaEvH0mdddr9fpXH-27" value="Carrito" style="text;html=1;strokeColor=none;fillColor=none;align=center;verticalAlign=middle;whiteSpace=wrap;rounded=0;fontSize=15;" parent="bOvIYaEvH0mdddr9fpXH-4" vertex="1">
          <mxGeometry x="1800" y="20" width="60" height="30" as="geometry" />
        </mxCell>
        <mxCell id="bOvIYaEvH0mdddr9fpXH-32" value="Todos" style="text;strokeColor=none;fillColor=none;html=1;fontSize=24;fontStyle=1;verticalAlign=middle;align=center;" parent="bOvIYaEvH0mdddr9fpXH-4" vertex="1">
          <mxGeometry x="660" y="30" width="100" height="40" as="geometry" />
        </mxCell>
        <mxCell id="bOvIYaEvH0mdddr9fpXH-34" value="Camisetas" style="text;strokeColor=none;fillColor=none;html=1;fontSize=24;fontStyle=1;verticalAlign=middle;align=center;" parent="bOvIYaEvH0mdddr9fpXH-4" vertex="1">
          <mxGeometry x="780.5" y="30" width="100" height="40" as="geometry" />
        </mxCell>
        <mxCell id="bOvIYaEvH0mdddr9fpXH-35" value="Sudaderas" style="text;strokeColor=none;fillColor=none;html=1;fontSize=24;fontStyle=1;verticalAlign=middle;align=center;" parent="bOvIYaEvH0mdddr9fpXH-4" vertex="1">
          <mxGeometry x="924.5" y="30" width="100" height="40" as="geometry" />
        </mxCell>
        <mxCell id="bOvIYaEvH0mdddr9fpXH-36" value="Jeans" style="text;strokeColor=none;fillColor=none;html=1;fontSize=24;fontStyle=1;verticalAlign=middle;align=center;" parent="bOvIYaEvH0mdddr9fpXH-4" vertex="1">
          <mxGeometry x="1040" y="30" width="100" height="40" as="geometry" />
        </mxCell>
        <mxCell id="bOvIYaEvH0mdddr9fpXH-37" value="Gorras" style="text;strokeColor=none;fillColor=none;html=1;fontSize=24;fontStyle=1;verticalAlign=middle;align=center;" parent="bOvIYaEvH0mdddr9fpXH-4" vertex="1">
          <mxGeometry x="1150" y="30" width="100" height="40" as="geometry" />
        </mxCell>
        <mxCell id="bOvIYaEvH0mdddr9fpXH-38" value="&lt;font color=&quot;#ff1212&quot;&gt;Sale&lt;/font&gt;" style="text;strokeColor=none;fillColor=none;html=1;fontSize=24;fontStyle=1;verticalAlign=middle;align=center;" parent="bOvIYaEvH0mdddr9fpXH-4" vertex="1">
          <mxGeometry x="1250" y="30" width="100" height="40" as="geometry" />
        </mxCell>
        <mxCell id="bOvIYaEvH0mdddr9fpXH-44" value="" style="rounded=1;whiteSpace=wrap;html=1;fontSize=18;fontColor=#000000;fillColor=#C7C7C7;strokeColor=#000000;" parent="bOvIYaEvH0mdddr9fpXH-4" vertex="1">
          <mxGeometry x="799.5" y="540" width="130.5" height="30" as="geometry" />
        </mxCell>
        <mxCell id="bOvIYaEvH0mdddr9fpXH-45" value="Iniciar sesion" style="text;html=1;strokeColor=none;fillColor=none;align=center;verticalAlign=middle;whiteSpace=wrap;rounded=0;fontSize=18;fontColor=#000000;" parent="bOvIYaEvH0mdddr9fpXH-4" vertex="1">
          <mxGeometry x="799.5" y="540" width="120.5" height="30" as="geometry" />
        </mxCell>
        <mxCell id="bOvIYaEvH0mdddr9fpXH-41" value="" style="rounded=0;html=1;fontSize=18;verticalAlign=top;labelPosition=center;verticalLabelPosition=bottom;align=center;horizontal=1;whiteSpace=wrap;strokeColor=#b85450;fillColor=#0A0A0A;" parent="bOvIYaEvH0mdddr9fpXH-4" vertex="1">
          <mxGeometry y="740" width="1920" height="200" as="geometry" />
        </mxCell>
        <mxCell id="bOvIYaEvH0mdddr9fpXH-47" value="&lt;span style=&quot;font-family: Roboto, arial, sans-serif; text-align: left; background-color: rgb(0, 0, 0);&quot;&gt;&lt;font color=&quot;#ffffff&quot; style=&quot;font-size: 30px;&quot;&gt;¿Quienes somos?&lt;/font&gt;&lt;/span&gt;" style="text;strokeColor=none;fillColor=#000000;html=1;fontSize=24;fontStyle=1;verticalAlign=middle;align=center;fontColor=#000000;" parent="1" vertex="1">
          <mxGeometry x="50" y="747" width="220" height="80" as="geometry" />
        </mxCell>
      </root>
    </mxGraphModel>
  </diagram>
</mxfile>
